<?xml version="1.0"?>
<svg xmlns="http://www.w3.org/2000/svg" viewBox="0 0 512 512" width="512" height="512"><g id="Flat"><path d="M488,207.96,480,216v24a8,8,0,0,1-8,8H456l-16,40,16.4,49.97,3.9,19.51A42.236,42.236,0,0,1,418.88,408H408l-16,24-36.854,32.247A96,96,0,0,1,291.929,488H256V408h40l36.32-45.4L392,280l8-32V192c-2.37-19.72,15-37.37,34.72-39.74a35.952,35.952,0,0,1,40,31.42l.62,9.1Z" style="fill:#fec093"/><path d="M408,160l-13.737-9.158a40.741,40.741,0,0,0-22.6-6.842h0a40.738,40.738,0,0,0-40.38,35.353l-7.474,56.056A63.711,63.711,0,0,1,296,280h29.491a40.737,40.737,0,0,0,40.182-34.04L376,184h24Z" style="fill:#6e3c26"/><path d="M419.114,220.348l-8.666-6.805a12.622,12.622,0,0,1,12.179-21.764l2.89,1.07L448.4,153.242c-16.267-5.629-43.966-7.242-60.633,17.425C364.3,205.389,400,248,400,248Z" style="fill:#6e3c26"/><path d="M452.67,391.11A42.246,42.246,0,0,1,418.88,408H408l-75.68-45.4L392,280l64.4,57.97,3.9,19.51A42.274,42.274,0,0,1,452.67,391.11Z" style="fill:#b76bbf"/><path d="M256,408v80H213.492a96,96,0,0,1-74.3-35.209L39.585,331.048A68.944,68.944,0,0,1,24,287.388h0a68.95,68.95,0,0,1,14.23-41.949L112.78,148.2l91.1-118.832A13.711,13.711,0,0,1,214.765,24h0a13.71,13.71,0,0,1,13.359,16.793l-17.673,76.58A13.708,13.708,0,0,1,197.094,128H184l-29.33,50.67L96,280l72,96h0a94.561,94.561,0,0,1,82.409,26.409Z" style="fill:#feb784"/><path d="M413.825,324.039,385.885,170.37a23.994,23.994,0,0,0-10.8-16L232,64,189.157,42.579a8,8,0,0,0-9.234,1.5L160.579,63.421a8,8,0,0,0,2.686,13.085L192,88l-14.761,14.761A4.23,4.23,0,0,0,176,105.752h0a4.23,4.23,0,0,0,5.8,3.928L216,96l120,88,22.306,148.707a27.843,27.843,0,0,0,10.829,18.144l.591.443a27.843,27.843,0,0,0,38.98-5.568h0A27.842,27.842,0,0,0,413.825,324.039Z" style="fill:#fec9a3"/><path d="M256,408v80H213.492a96,96,0,0,1-74.3-35.209L39.585,331.048A68.944,68.944,0,0,1,24,287.388h0a68.95,68.95,0,0,1,14.23-41.949L112.78,148.2l41.89,30.47L96,280l72,96h0a94.561,94.561,0,0,1,82.409,26.409Z" style="fill:#bc4598"/></g></svg>
