<svg height="512" viewBox="0 0 512 512" width="512" xmlns="http://www.w3.org/2000/svg"><g id="Flat"><path d="m119.782 408v64l-8 16 20.649-6.883a40 40 0 0 0 27.351-37.947v-75.17a40 40 0 0 0 -40 40z" fill="#61311c"/><path d="m184.279 301.556-16.306 69.544a39 39 0 0 0 30.016 44.009 37.041 37.041 0 0 0 13.737.455 37.735 37.735 0 0 0 14.218-5.307 38.581 38.581 0 0 0 17.031-23.957l1.259-5.368 17.766-19.725-10.214-12.484 4.516-19.259a8.437 8.437 0 0 0 -6.133-10.162l-18.387-7.302v-32h-47.782z" fill="#feb784"/><path d="m189.161 340.406-9.9 6.2a13.636 13.636 0 0 0 -6.339 11.773 13.344 13.344 0 0 0 16.466 12.93l3.156-.789 19.179 45.04c.023.054-37.091 9.436-59.065-23.949a52.373 52.373 0 0 1 -7.433-40.839 51.266 51.266 0 0 1 1.7-5.6l.583-1.405c7.772-18.7 19.781-31.573 36.763-42.219z" fill="#6e3c26"/><path d="m396.28 109.68c-.98 8.83-2.45 17.6-4.28 26.32-7.23 34.44-19.13 68.3-29.41 101.63-3.03 9.84-10.59 23.96-10.59 34.37v216h-67.2a10.424 10.424 0 0 1 -10.27-7.95 10.215 10.215 0 0 1 4.7-11.03l35.04-21.02-7.47-72-10.8-104 18.27-152-16.24 7.58-18.03 8.42v56l5.89 11.78a45.222 45.222 0 0 1 -17.18 58.99l-26.57 15.95-2.14 1.28h-56v-20.38a249.362 249.362 0 0 1 10.89-73.24 297.767 297.767 0 0 1 15.77-40.61q2.025-4.305 4.19-8.6c12.63-25.08 24.26-50.77 38.8-74.81q1.575-2.595 3.16-4.98c17.49-26.27 36.72-33.38 62.02-33.38a81.163 81.163 0 0 1 38.3 9.6c29.37 15.71 42.76 43.31 39.15 76.08z" fill="#feb784"/><path d="m285.89 244.22a45.563 45.563 0 0 1 -7.27 10.5 45.106 45.106 0 0 1 -9.91 8.05l-26.57 15.95-2.14 1.28-56-20.38a249.362 249.362 0 0 1 10.89-73.24 297.767 297.767 0 0 1 15.77-40.61l69.34 46.23 5.89 11.78a45.241 45.241 0 0 1 0 40.44z" fill="#c378cb"/><path d="m396.28 109.68c-.98 8.83-2.45 17.6-4.28 26.32-7.23 34.44-19.13 68.3-29.41 101.63-3.03 9.84-10.59 23.96-10.59 34.37v104h-45.2l-10.8-104 18.27-152-16.24 7.58-41.22-70.2c17.49-26.27 36.72-33.38 62.02-33.38a81.163 81.163 0 0 1 38.3 9.6c29.37 15.71 42.76 43.31 39.15 76.08z" fill="#bc4598"/><rect fill="#a33484" height="16.001" rx="8" transform="matrix(.164 -.986 .986 .164 171.251 394.16)" width="48.662" x="293.944" y="88"/><path d="m236.781 264c-6.781-14.54-23.441-48.98-41.891-77.62a249.362 249.362 0 0 0 -10.89 73.24v4.46a47.479 47.479 0 0 0 9.474 28.458 94.973 94.973 0 0 0 36.706 29.528l65.82 29.934v104l-34 13.6a9.541 9.541 0 0 0 -6 8.858 9.54 9.54 0 0 0 9.541 9.542h62.459l14.109-126.985a57.974 57.974 0 0 0 -5.765-32.327 57.972 57.972 0 0 0 -24.855-25.376z" fill="#fec093"/></g></svg>