<svg height="512" viewBox="0 0 512 512" width="512" xmlns="http://www.w3.org/2000/svg"><g id="Flat"><path d="m232 200h-8a32 32 0 0 1 -32-32v-24l-16-8v-16h16a32 32 0 0 1 32 32v32z" fill="#61311c"/><path d="m486.7 347.9-14.7 44.1h-279.02a42.24 42.24 0 0 1 -40.98-32l-16-80h56l16 32 40 32 144 11.52 56 4.48 22.26-22.26a9.929 9.929 0 0 1 16.44 10.16z" fill="#fec093"/><path d="m392 355.52v36.48h-199.02a42.24 42.24 0 0 1 -40.98-32l-8-40h74l30 24z" fill="#b03b8d"/><path d="m352 382.11a9.893 9.893 0 0 1 -9.89 9.89h-46.11l-48-96-40 96h-15.02a42.24 42.24 0 0 1 -40.98-32l60.24-93.71a39.82 39.82 0 0 1 70.1 5.85l17.75 41.42 19.91 46.44 26.53 13.27a9.881 9.881 0 0 1 5.47 8.84z" fill="#fec093"/><path d="m300.09 313.56-36.09 14.44-16-32-40 96h-15.02a42.24 42.24 0 0 1 -40.98-32l60.24-93.71a39.82 39.82 0 0 1 70.1 5.85z" fill="#bc4598"/><path d="m280 160v-40h-24l-8 16v16l8 16v56l-44.3-14.768a23.993 23.993 0 0 0 -7.59-1.232h-20.11v-28.492c22.723-52.112-5.329-58.728-18.465-60.186-9.07-1.008-14.37 2.949-17.031 4.7-5.1 3.386-7.3 8.574-8.615 15.05v7.35l-8.389 11.031 5.514 5.514v16.541h14.986v28.492h-27.97a24 24 0 0 0 -23.613 19.707l-12.417 68.293-32 72-25.194 6.3a8.984 8.984 0 0 0 -6.806 8.715 8.985 8.985 0 0 0 8.985 8.985h39.015l48-88 8-56 8 32h56l16-32 36.686 6.114a35.275 35.275 0 0 0 21.573-3.243 35.272 35.272 0 0 0 19.322-35.058z" fill="#fec093"/><path d="m192 208h-8l-12.294 18.441a12.483 12.483 0 0 1 -22.229-10.872l2.523-7.569h-16l-8 24-5.033 10.067a28.1 28.1 0 0 0 12.566 37.7l.467.233h56l9.018-18.036c-30.006-11.98-9.018-53.964-9.018-53.964z" fill="#c378cb"/><path d="m174.351 161.276s8.271-7.926 4.825-15.163c-2.732-5.737-9.649-4.824-14.818 0 0 0-2.068-.344-7.582-8.271a32.3 32.3 0 0 1 -5.859-15.378c11.2-7.323 32.394-8.4 43.078 10.209 13.884 24.186-9.995 46.835-9.995 46.835z" fill="#6e3c26"/></g></svg>