<svg height="512" viewBox="0 0 512 512" width="512" xmlns="http://www.w3.org/2000/svg"><g id="Flat"><path d="m486.89 264.31a29.336 29.336 0 0 1 -11.95 32.4l-10.94 7.29v1.48a31.964 31.964 0 0 1 -10.93 24.08l-53.07 46.44-24-56 40-32-4.18-20.92-3.82-19.08v-16a16 16 0 0 1 16-16h4.92v-69.57c0-14.4 11.79-26.61 26.18-26.43a25.623 25.623 0 0 1 9.34 1.87 25.866 25.866 0 0 1 16.18 23.98v3.69l7.38 14.77-7.38 7.38v14.77h-22.16v29.54l14.74 23.95 10.45 16.98a29.231 29.231 0 0 1 3.24 7.38z" fill="#fec093"/><path d="m488 272.3a29.335 29.335 0 0 1 -13.06 24.41l-10.94 7.29-48-16-4.18-20.92c18.98 1.35 46.68-1.23 60.18-24.41l1.2-2.72 10.45 16.98a29.345 29.345 0 0 1 4.35 15.37z" fill="#b76bbf"/><path d="m400 376-18.418 12.278a31.989 31.989 0 0 1 -12.189 4.888l-129.393 22.834h-206.459a9.54 9.54 0 0 1 -9.541-9.541 9.541 9.541 0 0 1 6-8.858l34-13.601 6.725-6.725a16 16 0 0 1 20.189-2l13.086 8.725 48-2.53 16-.84 64-4.63 88-24 .85-2.125a49.04 49.04 0 0 1 55.15-29.875z" fill="#fec093"/><path d="m400 376-18.418 12.278a31.989 31.989 0 0 1 -12.189 4.888l-129.393 22.834h-88v-34.53l16-.84 64-4.63 88-24 .85-2.125a49.04 49.04 0 0 1 55.15-29.875z" fill="#bc4598"/><path d="m419.692 134.769h-29.538a22.154 22.154 0 0 0 -22.154 22.154v51.692h7.385a22.153 22.153 0 0 0 22.153-22.153v-29.539l22.154-7.385z" fill="#6e3c26"/><path d="m437.794 167.235-5.6-5.6a9.07 9.07 0 0 1 10.557-14.482l1.97 1.012 19.721-26.292a25.728 25.728 0 0 0 -9.673-1.873h-11.751q-.693 0-1.381.028c-19.254.773-33.493 18.322-31.1 37.443l.168 1.006a65.282 65.282 0 0 0 18.222 35.369z" fill="#6e3c26"/><path d="m440 392v-160a16 16 0 0 0 -16-16 16 16 0 0 0 -16 16v72l8 112h47.015a8.985 8.985 0 0 0 8.985-8.985 8.984 8.984 0 0 0 -6.806-8.716z" fill="#fec9a3"/></g></svg>