<svg width="841" height="732" viewBox="0 0 841 732" fill="none" xmlns="http://www.w3.org/2000/svg">
<path fill-rule="evenodd" clip-rule="evenodd" d="M652.312 596.793C657.065 612.889 654.034 631.67 643.148 644.91C636.117 653.461 619.397 661.108 610.012 652.205C605.815 648.223 604.04 634.594 602.247 628.235C600.598 622.386 597.84 611.555 599.065 606.648C600.849 599.497 615.101 601.15 621.763 600.524C631.986 599.563 642.135 598.103 652.312 596.793ZM786.8 604.969C789.038 609.895 792.608 613.159 794.13 618.626C795.125 622.195 795.724 625.774 796.118 629.438C796.595 633.876 796.921 633.706 793.859 635.781C789.187 638.948 777.235 638.704 771.55 639.622C764.13 640.82 756.746 642.231 749.322 643.425C751.121 636.516 750.178 629.078 752.038 622.031C753.846 615.184 756.993 608.424 761.435 602.799C764.74 598.613 769.547 593.599 775.49 593.573C783.151 593.54 784.361 599.603 786.8 604.969ZM315.679 456.921C316.816 471.735 314.705 487.51 306.28 500.24C302.712 505.631 297.516 508.531 293.298 513.173C288.417 518.545 285.77 525.185 278.059 527.483C273.084 528.968 267.245 527.943 262.072 528.611C253.485 529.721 250.95 528.518 243.709 524.073C238.509 520.879 232.514 521.478 227.03 517.977C220.454 513.779 214.728 507.793 208.499 503.039C243.455 485.915 279.493 471.333 315.679 456.921ZM409.644 465.706C423.022 472.001 430.096 482.738 433.919 496.598C397.017 505.033 361.102 515.352 324.855 526.988C334.976 501.242 346.343 477.667 374.031 465.692C379.555 463.303 385.231 459.499 391.518 459.59C397.78 459.679 404.153 463.123 409.644 465.706ZM746.224 503.873C765.242 513.882 755.575 545.872 748.929 560.074C740.471 553.853 731.604 547.794 723.345 541.736C714.318 535.114 706.202 526.591 697.967 519.048C702.327 516.774 705.161 513.157 709.214 510.559C713.227 507.988 717.208 507.804 721.703 506.799C730.311 504.874 737.277 499.162 746.224 503.873ZM597.815 431.791C599.333 433.738 601.147 435.574 602.577 437.575C606.051 442.434 609.055 447.375 613.083 451.883C620.218 459.871 630.606 470.399 642.296 471.128L642.635 474.538C639.188 474.451 637.149 471.482 634.158 471.18C631.81 470.944 628.523 472.738 625.644 472.484C616.741 471.7 607.994 471.252 598.956 471.492C581.117 471.965 563.582 474.809 546.047 477.076C549.397 465.136 555.649 452.906 565.612 444.919C569.056 442.157 572.356 438.361 576.244 436.16C578.585 434.835 581.063 434.734 583.472 433.699C586.26 432.501 589.839 428.504 592.718 428.121C595.728 427.72 595.74 429.128 597.815 431.791ZM740.765 432.879C750.123 440.391 757.313 449.922 765.008 458.944C771.973 467.11 781.412 478.76 783.889 489.273C771.537 495.084 750.353 489.765 742.385 479.016C732.56 465.76 737.376 447.31 740.765 432.879ZM526.558 390.046C524.715 402.503 518.727 416.383 509.741 425.684C505.866 429.695 502.471 434.925 498.069 438.432C492.32 443.012 487.693 440.665 481.021 441.376C473.855 442.138 469.211 446.814 461.574 445.545C456.134 444.64 451.123 441.628 446.011 440.714C440.426 439.715 435.551 440.307 429.999 437.542C423.132 434.124 417.653 427.397 412.313 422.289C415.124 420.063 420.8 419.903 424.396 418.7C429.146 417.11 433.89 415.535 438.667 414.012C448.532 410.867 458.37 407.655 468.255 404.563C487.082 398.674 506.961 393.08 526.558 390.046Z" fill="#F06657"/>
<path fill-rule="evenodd" clip-rule="evenodd" d="M821.924 82.492L821.309 86.622C827.32 87.658 827.497 84.028 821.924 82.492ZM795.767 75.3715C792.544 74.2476 787.273 75.8951 789.807 79.744C793.384 85.179 795.013 78.0839 795.767 75.3715ZM535.869 225.878C536.354 225.394 530.642 214.48 529.905 212.649C526.218 214.753 525.968 214.244 527.47 217.762C528.767 220.796 533.281 223.877 535.869 225.878ZM199.068 228.872C197.307 228.718 193.801 227.669 192.306 228.281C190.217 229.137 190.779 231.119 190.526 234.011C196.635 233.727 197.49 234.536 199.068 228.872ZM191.146 222.88C194.133 223.416 197.118 223.952 200.104 224.488C200.742 221.068 202.43 215.412 196.134 217.477C195.542 217.671 191.903 221.767 191.146 222.88ZM542.929 229.912C539.753 233.068 554.495 239.748 556.015 237.608C559.332 232.94 545.073 230.611 542.929 229.912ZM615.851 192.612C617.635 192.437 619.417 192.261 621.2 192.086C620.584 189.485 618.707 179.898 614.806 180.413C610.93 180.923 615.301 190.584 615.851 192.612ZM622.356 208.263C622.406 206.103 623.291 201.312 622.446 199.232C621.871 197.818 619.507 193.523 616.11 196.314C615.387 196.908 615.056 205.558 615.276 205.838C616.202 207.015 621.037 207.811 622.356 208.263ZM603.924 236.006C600.264 233.208 592.306 229.08 588.782 235.407C583.869 244.225 600.748 238.331 603.924 236.006ZM583.002 236.741C578.196 237.642 573.341 237.524 568.476 237.184C563.025 236.802 561.733 235.138 560.146 240.358C565.992 242.477 578.443 243.947 584.358 241.931C583.907 240.201 583.454 238.47 583.002 236.741ZM613.314 212.782C611.631 216.23 607.986 220.746 607.004 224.343C606.282 226.995 605.998 225.67 606.603 227.728C606.819 228.462 609.778 231.536 610.296 232.279C613.889 229.559 618.222 226.78 620.062 222.59C623.008 215.881 619.22 215.343 613.314 212.782ZM531.561 198.663C519.341 202.465 504.332 206.188 491.397 205.056C491.227 206.163 513.335 212.606 515.978 212.141C518.679 211.666 518.894 207.902 522.13 205.893C525.698 203.678 528.645 204.996 532.589 204.651C532.246 202.655 531.904 200.659 531.561 198.663ZM571.787 249.873C560.539 249.153 550.49 246.466 540.54 241.348C534.826 238.409 530.721 234.146 526.901 229.228C523.943 225.418 524.548 225.731 519.903 224.439C516.471 223.486 512.25 223.872 508.726 223.43C496.928 221.946 485.169 218.37 473.947 214.648C461.354 210.472 450.506 204.582 436.673 204.926C412.921 205.517 393.656 223.493 368.879 215.943C359.048 212.948 348.866 208.972 340.915 202.551C330.576 194.199 324.297 189.251 309.727 192.21C297.996 194.591 288.996 200.807 278.945 206.536C267.491 213.066 254.991 216.978 242.219 220.427C237.216 221.777 232.582 222.563 227.339 222.826C224.22 222.983 209.44 220.734 207.614 222.322C205.848 223.858 205.045 234.457 205.233 236.39C205.547 239.618 204.122 239.951 207.571 241.311C209.966 242.255 217.361 241.3 220.329 241.638C244.21 244.366 268.676 245.183 292.175 249.298C314.26 253.165 336.424 256.294 358.261 260.829C386.667 266.73 415.597 269.422 444.018 275.136C457.756 277.897 471.611 281.787 485.188 284.729C497.551 287.406 509.973 289.891 522.407 292.317C521.951 290.609 519.367 284.385 523.492 284.959C526.106 285.322 530.493 294.349 531.872 296.38C538.218 305.73 544.977 312.828 553.611 320.269C562.312 327.769 571.074 335.191 579.906 342.552C587.121 348.565 602.621 357.534 602.221 368.035C597.826 368.871 589.1 361.086 585.81 358.977C579.152 354.707 572.768 350.055 566.56 345.199C560.72 353.744 574.563 363.649 576.135 371.731C572.575 371.746 566.63 361.949 564.469 359.353C558.73 364.702 552.289 369.419 548.157 376.138C594.465 374.162 602.057 431.595 635.484 451.064C642.89 455.376 652.169 457.159 660.636 455.264C669.456 453.292 677.933 450.507 685.693 445.524C703.023 434.396 715.723 413.001 722.505 394.628C726.25 384.481 729.784 374.653 731.479 363.976C733.355 352.153 731.591 340.136 730.063 328.355C727.343 307.363 716.185 286.171 700.382 271.156C693.3 264.427 685.564 258.537 679.078 251.191C676.815 248.627 671.65 238.809 668.81 238.194C663.577 237.06 660.876 244.404 657.255 238.393C653.709 232.509 660.473 230.213 664.591 227.472C669.034 224.513 673.343 221.401 677.685 218.312C686.27 212.203 694.769 206.196 703.015 199.692C743.222 167.98 778.766 132.625 814.774 96.59C808.032 94.995 798.445 90.409 791.591 91.632C784.735 92.857 778.644 97.708 771.415 98.512C764.373 99.295 757.535 97.775 751.005 95.561C743.308 92.951 738.097 89.593 731.639 96.105C721.263 106.569 715.553 121.108 704.661 131.009C693.653 141.015 678.245 146.859 663.912 149.877C650.641 152.671 632.237 151.351 622.513 161.798C620.324 164.148 618.372 165.821 618.247 169.334C618.028 175.581 619.444 171.104 621.452 174.973C624.724 181.271 626.003 189.129 626.741 196.089C628.233 210.177 626.349 225.608 615.062 235.318C602.903 245.775 587.865 250.178 571.787 249.873ZM571.144 227.056C579.376 231.256 596.022 225.782 602.601 220.661C611.553 213.692 612.26 201.562 610.826 191.422C606.663 192.43 602.499 193.437 598.335 194.445C596.56 194.874 594.785 195.304 593.01 195.734C593.172 197.203 592.931 198.574 592.287 199.847C588.365 204.873 586.464 202.376 582.205 198.017C573.089 188.686 565 178.167 561.283 165.763C557.118 170.628 552.415 173.765 545.741 173.089C542.817 172.794 531.604 169.303 534.499 164.186C535.419 162.559 544.537 164.608 547.592 164.454C553.971 164.131 556.973 164.254 559.307 158.255C561.251 153.26 560.564 151.207 554.567 150.292C546.953 149.129 546.735 153.65 541.31 155.77C527.535 161.155 536.941 139.714 534.975 133.675C541.746 131.671 548.894 130.279 554.882 126.46C548.248 127.221 541.939 129.437 535.514 131.05C536.061 123.143 551.749 121.46 557.616 118.976C551.277 118.133 545.252 122.306 538.889 122.043C532.944 121.798 524.607 119.3 518.871 117.398C512.973 115.443 508.347 109.994 502.656 114.737C498.926 117.846 493.92 126.317 492.725 130.825C496.437 130.29 505.181 129.568 506.212 133.781C507.537 139.192 496.613 136.043 493.246 136.929C488.135 138.275 489.702 139.76 487.848 144.81C486.022 149.783 482.744 153.762 477.559 155.824C483.323 158.925 484.91 158.869 483.748 164.606C482.606 170.247 483.36 176.584 483.918 182.862C487.348 181.458 491.043 181.005 494.725 180.637C495.442 185.191 488.286 187.118 484.6 187.384C486.535 193.378 486.607 193.189 493.227 193.171C496.935 193.16 500.655 192.947 504.354 192.768C511.885 192.402 519.194 191.058 526.622 189.865C529.457 189.408 533.473 187.86 536.295 188.171C541.469 188.739 540.463 189.298 539.608 193.706C538.45 199.682 539.755 204.205 541.256 210.691C532.401 207.673 539.513 216.908 543.691 218.809C551.92 222.551 561.992 226.557 571.144 227.056ZM86.897 588.225C93.165 591.352 99.086 594.298 104.796 598.299C110.478 602.28 116.538 608.974 123.73 610.26C132.333 611.798 134.404 607.334 136.533 600.742C138.925 593.328 141.115 589.963 147.915 585.896C159.949 578.7 174.045 573.958 187.196 568.778C192.227 566.798 192.605 567.177 191.117 562.08C190.218 559.003 189.121 555.98 187.943 552.991C185.766 547.476 183.381 541.635 179.738 536.823C158.884 550.514 134.012 566.384 108.34 569.676C97.916 571.014 87.643 573.359 77.419 574.248C72.357 574.688 68.209 575.97 63.75 578.146C58.757 580.582 50.498 581.441 46.902 585.447C60.401 585.356 73.55 587.079 86.897 588.225ZM598.34 606.17C594.16 607.891 599.805 617.766 601.01 621.878C602.822 628.055 604.535 634.258 606.362 640.431C610.23 653.5 613.875 666.623 617.545 679.744C641.733 666.617 667.614 659.105 694.477 652.825C721.24 646.568 748.577 642.115 775.923 637.833C790.866 635.49 806.54 632.294 820.377 626.206C828.98 622.421 827.298 618.927 827.158 610.545C827.025 602.678 825.788 594.658 824.582 586.867C822.304 572.148 819.897 556.1 813.952 542.27C808.159 528.795 800.408 515.838 792.956 503.146C784.112 488.085 776.58 471.867 765.04 458.496C753.014 444.562 740.109 431.923 727.065 418.951C719.257 433.758 708.116 451.716 693.715 461.037C677.871 471.289 652.947 476.56 634.93 467.979C616.783 459.336 606.056 441.607 594.757 426.159C583.866 411.27 574.404 395.164 555.104 389.852C534.692 384.233 513.2 391.881 493.299 396.673C470.608 402.136 448.406 409.974 426.351 417.378C388.062 430.235 350.076 442.001 312.754 457.322C266.818 476.179 220.821 494.888 176.423 516.964C186.028 530.698 193.474 543.213 198.899 559.01C203.124 571.309 205.705 584.333 206.693 597.634C211.861 592.492 215.809 586.377 221.025 581.173C226.925 575.285 233.852 570.754 240.793 566.139C253.358 557.783 266.236 550.218 280.095 543.864C311.553 529.439 344.981 519.504 378.241 509.223C385.776 506.894 394.645 504.188 402.455 502.898C409.091 501.803 414.986 499.879 421.741 498.282C437.06 494.663 452.55 491.342 468.002 488.72C497.69 483.683 527.984 478.315 558.085 474.833C578.495 472.472 599.795 468.643 620.765 470.688C624.309 471.034 627.779 471.733 631.348 471.623C632.343 471.592 633.526 470.12 634.556 470.221C636.537 470.417 638.658 472.632 640.679 473.293C645.242 474.784 651.87 473.858 654.355 477.615C656.346 480.624 655.617 483.007 652.652 484.99C656.22 489.521 663.202 493.696 667.985 497.259C672.283 500.462 676.337 503.908 680.672 506.996C685.329 510.313 690.971 513.444 695.848 516.829C702.21 521.244 707.645 526.9 713.654 531.853C724.439 540.743 735.262 548.486 746.627 556.819C752.747 561.307 758.581 565.533 765.23 569.205C768.866 571.213 777.106 576.713 772.805 581.707C768.513 586.69 759.906 579.322 755.218 578.792C749.822 578.18 742.545 581.55 737.163 582.341C722.921 584.433 708.634 586.273 694.387 588.534C678.125 591.114 662.033 594.598 645.695 596.742C637.257 597.849 628.821 598.918 620.337 599.681C615.962 600.075 609.777 599.484 605.666 600.88C602.555 599.976 601.201 600.859 601.605 603.531C600.843 604.779 599.755 605.658 598.34 606.17ZM147.711 234.043C156.609 233.986 165.435 234.499 174.343 234.422C177.772 234.392 180.724 235.085 182.112 232.717C183.808 229.823 183.026 222.264 183.316 218.951C172.914 219.784 163.369 220.042 152.985 219.133C141.863 218.16 131.068 214.987 119.904 214.3C122.283 215.202 125.006 220.114 123.455 222.504C121.91 224.883 119.387 222.735 116.941 221.658C107.497 217.499 99.631 211.354 89.022 214.041C98.789 219.078 108.058 227.156 118.258 230.164C127.877 233 137.58 233.967 147.711 234.043ZM808.547 70.2689C812.878 71.0775 821.327 75.3993 825.212 73.222C829.956 70.5625 828.959 59.7786 829.132 55.5811C829.662 42.6808 830.644 24.9299 820.497 14.4729C818.656 26.8686 822.635 39.8305 822.351 52.3643C822.136 61.7695 818.583 56.6334 817.326 49.9765C816.176 43.8864 816.302 37.8789 814.734 31.82C811.856 36.7264 811.186 43.385 809.155 48.802C806.595 55.6329 802.973 61.8291 799.323 68.1612C802.408 68.8317 805.477 69.5396 808.547 70.2689ZM189.96 239.777C189.907 243.389 189.392 246.784 193.914 247.116C199.901 247.554 197.937 241.455 197.557 237.606C195.405 237.897 190.471 237.297 189.96 239.777ZM806.045 76.1633C802.291 75.6994 801.721 74.851 799.341 77.4745C797.829 79.1393 797.682 82.16 798.994 83.208C804.682 87.758 805.579 78.7171 806.045 76.1633ZM809.554 84.539C812.476 85.113 815.335 86.668 816.977 83.772C819.384 79.5251 813.63 79.1698 810.478 77.9089C810.17 80.1184 809.863 82.329 809.554 84.539ZM625.978 484.139C593.676 483.376 561.854 488.437 530.148 494.008C502.103 498.935 474.264 503.041 446.835 509.224C391.558 521.686 336.188 535.631 284.88 559.618C272.415 565.445 259.967 571.269 248.477 578.357C242.302 582.166 236.012 585.932 230.165 590.228C226.949 592.59 223.621 594.921 220.606 597.51C217.844 599.882 216.277 603.154 213.796 605.474C212.628 606.567 207.596 610.603 206.104 611.057C202.898 612.033 204.168 612.111 200.927 609.895C194.153 605.265 192.795 599.094 190.753 591.669C189.316 586.443 190.419 584.711 185.698 584.889C183.296 584.98 179.68 587.421 177.454 588.345C170.263 591.33 162.493 593.708 155.592 597.269C150.013 600.147 145.549 603.849 143.159 609.549C140.337 616.279 138.697 621.774 130.135 622.529C114.863 623.875 106.088 608.65 93.029 603.528C79.062 598.047 61.237 599.126 46.49 598.95C41.119 598.885 35.27 599.402 30.1472 600.126C22.9083 601.149 14.3442 605.08 6.831 602.581C-1.8157 599.705 -1.6856 587.422 4.0436 582.076C10.0341 576.488 18.9227 575.722 26.5847 573.867C42.074 570.118 56.162 561.572 71.973 558.947C87.7 556.336 104.364 555.768 119.696 551.01C127.509 548.584 135.1 546.692 142.524 543.28C151.773 539.028 161.735 536.262 170.871 532.083C167.727 526.561 166.876 521.436 166.684 515.249C166.557 511.12 165.885 511.117 168.752 509.387C169.32 509.681 169.887 509.975 170.456 510.271C172.257 511.55 173.54 510.966 174.308 508.517C186.988 500.826 198.708 492.564 212.238 485.884C234.931 474.679 258.954 465.628 281.64 454.955C324.741 434.679 372.746 422.98 418.089 408.126C445.518 399.14 473.604 391.779 501.709 385.152C506.635 383.99 511.546 383.028 516.554 382.257C525.037 380.951 523.031 380.873 527.31 374.348C532.8 365.975 541.515 357.042 550.36 351.854C555.815 348.654 558.142 349.134 557.971 342.134C557.842 336.785 556.374 336.838 551.999 333.257C547.051 329.205 542.455 324.71 538.277 319.932C533.507 314.48 531.371 308.3 527.381 302.696C522.557 295.922 507.638 297.072 499.287 295.892C486.207 294.046 472.91 292.725 460.026 289.873C434.007 284.115 407.852 282.101 381.509 278.075C355.028 274.028 328.555 270.338 302.072 266.672C292.565 265.356 282.936 264.225 273.481 262.594C260.245 260.309 246.316 260.078 232.887 257.941C225.973 256.841 217.505 252.936 210.55 253.269C203.085 253.628 209.76 253.543 204.85 256.11C202.646 257.263 200.097 258.294 197.557 258.427C193.557 258.637 189.525 256.924 187.078 253.87C182.998 248.78 184.965 244.88 176.652 244.238C171.179 243.816 164.792 245.927 159.231 246.205C153.782 246.478 148.116 247.268 142.665 247.108C131.764 246.786 118.772 245.828 108.873 241.169C98.382 236.232 89.02 229.646 77.984 225.448C72.446 223.34 64.567 222.446 60.855 217.351C57.755 213.098 56.797 204.447 61.549 200.959C68.839 195.609 82.973 203.705 91.039 201.683C95.163 200.649 91.759 199.404 94.878 197.963C96.81 197.07 96.52 196.936 98.813 196.613C104.466 195.812 113.725 199.771 119.472 200.712C130.813 202.565 142.055 205.394 153.386 207.127C159.856 208.117 166.434 208.365 172.918 209.417C178.565 210.334 183.206 212.546 187.304 208.011C189.032 206.098 188.504 204.126 191.274 203.128C193.758 202.235 200.893 203.517 203.293 204.437C205.914 205.442 206.5 206.891 208.609 208.036C208.662 210.204 209.573 210.853 211.344 209.981C212.992 209.857 214.635 209.945 216.27 210.244C230.664 210.304 244.99 205.838 258.081 200.564C279.775 191.826 306.711 167.088 331.594 180.544C337.716 183.854 341.734 189.375 347.695 192.962C352.99 196.146 359.762 198.999 365.716 200.795C377.614 204.384 389.441 203.935 401.227 200.219C415.598 195.686 427.172 190.939 442.66 191.46C457.01 191.942 468.462 201.848 482.518 202.243C479.084 196.728 478.448 190.393 478.085 184.137C477.848 180.045 480.133 169.335 477.657 166.023C474.924 162.365 453.58 160.886 465.484 150.148C469.38 146.631 476.572 147.905 480.601 144.022C484.668 140.104 484.748 133.976 486.917 129.084C489.371 123.549 493.417 118.977 497.565 114.56C499.321 112.69 500.507 111.503 501.507 109.255C502.668 106.646 501.895 104.442 503.749 101.693C510.011 92.415 520.934 95.645 530.44 96.881C536.203 97.631 543.183 96.916 548.776 98.489C553.271 99.753 559.117 103.585 562.774 106.398C570.831 112.593 572.703 124.026 573.324 133.394C573.688 138.878 572.62 144.046 572.532 149.511C572.439 155.231 569.956 157.823 565.49 161.617C565.407 160.561 564.891 159.853 563.94 159.492C561.995 161.885 562.494 162.819 565.437 162.295C565.549 163.726 566.06 165.011 566.968 166.153C569.401 168.855 571.497 171.841 573.866 174.596C579.05 180.62 585.097 185.848 589.086 192.685C593.268 187.819 598.591 187.021 603.58 183.665C608.433 180.4 604.809 179.428 606.609 174.709C607.331 172.818 609.227 172.484 609.893 171.02C610.525 169.632 609.756 168.756 610.145 167.231C612.087 159.659 611.281 154.968 617.329 149.032C625.418 141.093 635.386 138.994 646.507 137.487C657.602 135.982 665.48 135.446 675.344 131.063C678.765 129.542 682.002 128.848 685.253 127.123C689.645 124.789 693.737 122.328 697.554 119.179C706.427 111.861 711.945 101.665 719.119 92.871C724.863 85.834 731.788 76.8242 742.155 78.6825C753.945 80.7969 764.334 87.962 776.885 84.099C781.541 82.666 781.038 83.547 782.885 79.0329C783.499 77.5295 783.896 76.0149 784.493 74.5371C786.731 69.0057 791.017 68.3132 793.675 63.8096C799.949 53.1779 803.386 39.9193 806.959 28.2511C808.619 22.8326 811.834 18.1329 813.794 12.9372C814.613 10.7646 814.242 1.0883 816.786 0.2396C824.993 -2.4953 831.635 18.9971 833.132 23.0621C837.043 33.6848 840.488 45.6728 838.944 57.0463C838.309 61.7328 837.803 67.1621 836.549 71.7509C835.409 75.9171 835.163 75.643 835.815 79.4191C836.477 83.259 837.265 85.562 836.697 89.587C836.538 90.711 836.026 94.865 835.542 95.44C833.293 98.115 832.988 96.245 830.189 97.314C825.663 99.044 824.544 100.53 821.34 104.586C813.327 114.725 804.963 124.895 796.304 134.521C781.113 151.407 765.14 166.544 748.089 181.562C731.354 196.302 713.858 211.256 694.862 223.296C690.246 226.223 682.657 228.79 678.942 232.629C674.873 236.834 681.042 238.658 685.213 241.641C693.502 247.565 702.025 253.631 709.253 260.539C724.662 275.264 733.463 296.96 738.861 316.663C741.671 326.916 742.247 338.67 743.311 349.289C744.558 361.745 743.014 375.376 739.085 387.225C737.595 391.719 735.841 396.121 734.396 400.634C733.73 402.712 730.461 409.165 731.348 411.563C732.814 415.525 742.444 420.338 745.807 423.092C750.403 426.859 755.107 430.751 758.958 435.239C775.344 454.332 788.744 474.369 800.781 496.334C813.023 518.675 824.578 538.833 829.408 563.942C830.67 570.504 831.793 577.072 833.12 583.623C834.546 590.672 833.167 600.841 836.021 607.281C837.785 611.265 841.088 612.519 839.743 618.027C838.579 622.789 832.669 631.244 829.456 634.995C822.141 643.534 808.786 646.897 798.242 649.992C785.445 653.749 771.757 655.481 758.58 657.618C711.112 665.315 664.591 673.723 620.655 693.451C622.133 695.606 623.326 700.261 620.326 701.745C616.341 703.716 614.385 697.863 613.014 695.276C609.024 687.748 607.835 678.013 605.451 669.765C599.637 649.642 595.222 629.31 590.487 608.968C574.329 612.369 557.969 614.176 541.895 617.33C534.481 618.785 526.968 618.921 519.502 619.839C511.485 620.824 510.972 623.347 511.605 630.998C513 647.867 519.735 664.051 523.577 680.455C525.442 688.411 528.704 695.987 530.478 703.905C531.055 706.484 530.429 713.424 532.247 715.348C532.169 715.266 538.369 716.496 539.347 716.743C538.821 706.778 539.987 697.001 539.489 687.055C538.977 676.779 537.572 663.304 539.869 653.351C541.958 644.302 549.928 634.734 558.725 630.916C566.388 627.588 581.598 622.251 589.872 627.184C591.326 628.051 594.828 630.74 594.011 632.823C592.907 635.638 580.66 637.795 578.173 638.667C568.437 642.078 558.142 648.056 552.688 656.723C547.781 664.522 549.742 676.576 549.906 685.518C549.998 690.601 550.655 695.322 550.041 700.386C549.17 707.553 548.716 710.148 551.647 716.335C555.081 723.584 552.959 734.177 542.672 731.57C536.519 730.011 536.273 726.655 532.568 723.002C531.167 721.62 529.591 722.232 528.218 720.489C526.378 718.152 526.387 712.981 525.456 710.031C522.476 700.59 518.257 691.411 515.105 681.912C510.867 669.141 507.398 656.212 504.36 643.137C501.999 632.971 499.439 622.677 504.347 612.784C508.703 604.002 519.373 604.655 528.22 604.339C548.708 603.609 569.884 599.167 590.789 598.095C592.293 598.017 595.431 598.532 596.78 597.905C598.643 597.04 599.347 594.523 601.758 592.915C606.365 589.84 615.478 588.771 620.803 587.827C632.878 585.683 644.89 583.942 656.893 581.707C670.693 579.136 684.365 576.064 698.18 573.727C711.406 571.489 724.766 571.068 738.149 569.547C716.916 555.852 698.216 539.158 677.787 524.321C668.313 517.441 659.535 510.673 651.033 502.718C647.492 499.406 643.99 496.185 640.775 492.575C639.071 490.661 637.566 487.004 635.399 485.669C632.675 483.989 629.569 484.438 625.978 484.139Z" fill="black"/>
<path fill-rule="evenodd" clip-rule="evenodd" d="M548.042 98.588C541.018 97.976 532.969 97.932 526.152 96.369C532.174 96.889 542.529 96.551 548.042 98.588Z" fill="black"/>
<path fill-rule="evenodd" clip-rule="evenodd" d="M162.007 208.336C159.018 208.073 156.029 207.809 153.042 207.546C156.093 207.102 159.075 207.437 162.007 208.336Z" fill="black"/>
<path fill-rule="evenodd" clip-rule="evenodd" d="M346.04 273.372C348.037 273.544 350.033 273.715 352.017 273.889C350.016 273.718 348.028 273.545 346.04 273.372Z" fill="black"/>
<path fill-rule="evenodd" clip-rule="evenodd" d="M549.51 686.173C549.598 683.837 549.685 681.501 549.773 679.17C549.686 681.507 549.598 683.84 549.51 686.173Z" fill="black"/>
<path fill-rule="evenodd" clip-rule="evenodd" d="M538.549 704.287C538.514 705.959 538.48 707.631 538.444 709.297C538.479 707.623 538.514 705.955 538.549 704.287Z" fill="black"/>
<path fill-rule="evenodd" clip-rule="evenodd" d="M583.198 626.115C581.19 626.117 579.182 626.119 577.175 626.122C579.183 626.119 581.191 626.117 583.198 626.115Z" fill="black"/>
<path fill-rule="evenodd" clip-rule="evenodd" d="M297.495 266.032C298.822 266.2 300.149 266.368 301.466 266.537C300.134 266.368 298.815 266.2 297.495 266.032Z" fill="black"/>
<path fill-rule="evenodd" clip-rule="evenodd" d="M522.166 96.035C520.504 95.896 518.843 95.757 517.183 95.619C518.844 95.757 520.505 95.896 522.166 96.035Z" fill="black"/>
<path fill-rule="evenodd" clip-rule="evenodd" d="M538.842 678.213C538.795 679.884 538.746 681.555 538.699 683.22C538.746 681.548 538.795 679.88 538.842 678.213Z" fill="black"/>
<path fill-rule="evenodd" clip-rule="evenodd" d="M289.52 265.387C290.851 265.521 292.182 265.656 293.501 265.787C292.165 265.652 290.843 265.519 289.52 265.387Z" fill="black"/>
<path fill-rule="evenodd" clip-rule="evenodd" d="M310.352 268.228C311.685 268.352 313.016 268.476 314.335 268.598C312.998 268.474 311.675 268.351 310.352 268.228Z" fill="black"/>
<path fill-rule="evenodd" clip-rule="evenodd" d="M527.894 604.244C526.22 604.254 524.546 604.264 522.872 604.274C524.547 604.264 526.221 604.253 527.894 604.244Z" fill="black"/>
<path fill-rule="evenodd" clip-rule="evenodd" d="M469.866 292.24C470.866 292.322 471.866 292.403 472.856 292.487C471.852 292.406 470.859 292.323 469.866 292.24Z" fill="black"/>
<path fill-rule="evenodd" clip-rule="evenodd" d="M539.498 695.336C539.383 696.666 539.266 697.996 539.152 699.321C539.268 697.989 539.383 696.662 539.498 695.336Z" fill="black"/>
<path fill-rule="evenodd" clip-rule="evenodd" d="M625.698 484.551C626.699 484.635 627.699 484.717 628.688 484.803C627.684 484.721 626.691 484.636 625.698 484.551Z" fill="black"/>
<path fill-rule="evenodd" clip-rule="evenodd" d="M317.307 177.26C315.632 177.274 313.958 177.287 312.284 177.3C313.959 177.287 315.633 177.274 317.307 177.26Z" fill="black"/>
<path fill-rule="evenodd" clip-rule="evenodd" d="M121.517 200.722C120.2 200.474 118.884 200.227 117.567 199.979C118.883 200.227 120.2 200.474 121.517 200.722Z" fill="black"/>
<path fill-rule="evenodd" clip-rule="evenodd" d="M144.248 204.799L140.312 203.896L144.248 204.799Z" fill="black"/>
<path fill-rule="evenodd" clip-rule="evenodd" d="M91.282 202.102C89.966 201.847 88.649 201.594 87.333 201.339C88.648 201.594 89.966 201.847 91.282 202.102Z" fill="black"/>
<path fill-rule="evenodd" clip-rule="evenodd" d="M611.668 484.281C612.333 484.367 612.998 484.455 613.654 484.538C612.986 484.452 612.327 484.366 611.668 484.281Z" fill="black"/>
<path fill-rule="evenodd" clip-rule="evenodd" d="M473.968 165.04C474.631 165.142 475.295 165.244 475.949 165.347C475.283 165.243 474.626 165.142 473.968 165.04Z" fill="black"/>
<path fill-rule="evenodd" clip-rule="evenodd" d="M698.186 573.91C696.84 573.989 695.495 574.069 694.15 574.148C695.496 574.069 696.841 573.989 698.186 573.91Z" fill="black"/>
<path fill-rule="evenodd" clip-rule="evenodd" d="M742.296 373.787C742.383 372.79 742.469 371.793 742.557 370.798C742.471 371.796 742.383 372.792 742.296 373.787Z" fill="black"/>
<path fill-rule="evenodd" clip-rule="evenodd" d="M504.646 296.282C505.314 296.339 505.981 296.395 506.639 296.452C505.968 296.394 505.308 296.338 504.646 296.282Z" fill="black"/>
<path fill-rule="evenodd" clip-rule="evenodd" d="M232.908 258.472C233.577 258.517 234.244 258.561 234.903 258.607C234.233 258.563 233.571 258.517 232.908 258.472Z" fill="black"/>
<path fill-rule="evenodd" clip-rule="evenodd" d="M128.826 231.919C131.911 232.191 134.786 232.298 137.745 233.24C134.846 233.019 131.416 233.354 128.826 231.919Z" fill="black"/>
<path fill-rule="evenodd" clip-rule="evenodd" d="M160.819 233.395C162.974 232.771 166.574 233.035 168.798 233.978C166.139 233.783 163.478 233.589 160.819 233.395Z" fill="black"/>
<path fill-rule="evenodd" clip-rule="evenodd" d="M570.895 227.48C573.22 227.675 575.546 227.872 577.87 228.067C575.481 228.636 573.139 228.652 570.895 227.48Z" fill="black"/>
<path fill-rule="evenodd" clip-rule="evenodd" d="M806.009 75.8046C804.351 75.5943 802.692 75.3839 801.045 75.1726C802.707 75.3832 804.358 75.5939 806.009 75.8046Z" fill="black"/>
<path fill-rule="evenodd" clip-rule="evenodd" d="M80.627 587.779C82.72 586.8 84.668 587.481 86.605 588.292C84.611 588.12 82.62 587.95 80.627 587.779Z" fill="black"/>
<path fill-rule="evenodd" clip-rule="evenodd" d="M205.312 233.452C205.28 235.124 205.25 236.797 205.217 238.463C205.249 236.789 205.281 235.12 205.312 233.452Z" fill="black"/>
<path fill-rule="evenodd" clip-rule="evenodd" d="M142.721 233.724C144.394 233.719 146.069 233.714 147.742 233.709C146.068 233.714 144.394 233.719 142.721 233.724Z" fill="black"/>
<path fill-rule="evenodd" clip-rule="evenodd" d="M571.943 249.923C570.607 249.837 569.272 249.753 567.95 249.665C569.289 249.75 570.616 249.836 571.943 249.923Z" fill="black"/>
<path fill-rule="evenodd" clip-rule="evenodd" d="M202.147 567.447C202.145 569.121 202.141 570.794 202.139 572.465C202.141 570.79 202.144 569.119 202.147 567.447Z" fill="black"/>
<path fill-rule="evenodd" clip-rule="evenodd" d="M490.509 285.768C492.155 286.073 493.803 286.376 495.448 286.681C493.8 286.376 492.154 286.072 490.509 285.768Z" fill="black"/>
<path fill-rule="evenodd" clip-rule="evenodd" d="M150.032 219.011C148.696 218.938 147.359 218.866 146.035 218.798C147.375 218.872 148.704 218.941 150.032 219.011Z" fill="black"/>
<path fill-rule="evenodd" clip-rule="evenodd" d="M479.649 283.691C481.296 283.993 482.941 284.295 484.589 284.596C482.904 284.518 481.117 285.048 479.649 283.691Z" fill="black"/>
<path fill-rule="evenodd" clip-rule="evenodd" d="M165.969 220.424C164.966 220.37 163.964 220.316 162.972 220.261C163.977 220.315 164.974 220.369 165.969 220.424Z" fill="black"/>
<path fill-rule="evenodd" clip-rule="evenodd" d="M453.09 277.467C454.735 277.776 456.381 278.087 458.028 278.396C456.38 278.086 454.735 277.776 453.09 277.467Z" fill="black"/>
<path fill-rule="evenodd" clip-rule="evenodd" d="M809.24 84.766C810.886 85.081 812.532 85.396 814.177 85.711C812.531 85.396 810.886 85.081 809.24 84.766Z" fill="black"/>
<path fill-rule="evenodd" clip-rule="evenodd" d="M392.739 267.388C394.397 267.552 396.057 267.717 397.715 267.88C396.056 267.716 394.397 267.552 392.739 267.388Z" fill="black"/>
<path fill-rule="evenodd" clip-rule="evenodd" d="M808.467 70.6597C810.113 70.9654 811.76 71.2701 813.406 71.5757C811.759 71.27 810.113 70.9654 808.467 70.6597Z" fill="black"/>
<path fill-rule="evenodd" clip-rule="evenodd" d="M205.351 240.703C207.015 240.816 208.679 240.928 210.341 241.04C208.616 241.918 206.958 241.712 205.351 240.703Z" fill="black"/>
<path fill-rule="evenodd" clip-rule="evenodd" d="M534.886 139.82C535.011 138.491 535.135 137.161 535.258 135.837C535.134 137.169 535.01 138.495 534.886 139.82Z" fill="black"/>
<path fill-rule="evenodd" clip-rule="evenodd" d="M534.452 144.801C534.575 143.471 534.697 142.142 534.821 140.818C534.698 142.15 534.575 143.475 534.452 144.801Z" fill="black"/>
<path fill-rule="evenodd" clip-rule="evenodd" d="M539.816 387.659C538.814 387.594 537.812 387.529 536.822 387.465C537.828 387.53 538.822 387.594 539.816 387.659Z" fill="black"/>
<path fill-rule="evenodd" clip-rule="evenodd" d="M626.878 202.074C626.725 203.401 626.571 204.727 626.418 206.049C626.572 204.721 626.725 203.397 626.878 202.074Z" fill="black"/>
<path fill-rule="evenodd" clip-rule="evenodd" d="M648.303 455.653C649.977 455.635 651.653 455.616 653.327 455.598C651.651 455.616 649.976 455.635 648.303 455.653Z" fill="black"/>
<path fill-rule="evenodd" clip-rule="evenodd" d="M536.209 187.942C537.61 187.219 538.941 187.294 540.194 188.286C538.864 188.172 537.537 188.057 536.209 187.942Z" fill="black"/>
<path fill-rule="evenodd" clip-rule="evenodd" d="M547.5 173.617C546.837 173.513 546.174 173.408 545.52 173.305C546.186 173.41 546.843 173.513 547.5 173.617Z" fill="black"/>
<path fill-rule="evenodd" clip-rule="evenodd" d="M553.917 375.646C555.232 375.915 556.547 376.184 557.862 376.452C556.546 376.183 555.232 375.915 553.917 375.646Z" fill="black"/>
<path fill-rule="evenodd" clip-rule="evenodd" d="M508.515 481.543C509.855 481.512 511.196 481.482 512.538 481.451C511.196 481.481 509.856 481.513 508.515 481.543Z" fill="black"/>
<path fill-rule="evenodd" clip-rule="evenodd" d="M479.923 487.083C481.265 487.045 482.605 487.006 483.948 486.969C482.606 487.006 481.266 487.045 479.923 487.083Z" fill="black"/>
<path fill-rule="evenodd" clip-rule="evenodd" d="M467.703 489.069C469.047 489.002 470.393 488.936 471.736 488.869L467.703 489.069Z" fill="black"/>
<path fill-rule="evenodd" clip-rule="evenodd" d="M455.489 490.998L459.519 490.825C458.175 490.883 456.831 490.94 455.489 490.998Z" fill="black"/>
<path fill-rule="evenodd" clip-rule="evenodd" d="M713.146 586.495C712.141 586.449 711.137 586.401 710.147 586.354C711.155 586.402 712.15 586.449 713.146 586.495Z" fill="black"/>
<path fill-rule="evenodd" clip-rule="evenodd" d="M508.265 289.343C509.581 289.608 510.896 289.875 512.21 290.141C510.896 289.875 509.58 289.608 508.265 289.343Z" fill="black"/>
<path fill-rule="evenodd" clip-rule="evenodd" d="M755.937 97.393C755.268 97.355 754.599 97.318 753.939 97.281C754.61 97.32 755.273 97.356 755.937 97.393Z" fill="black"/>
<path fill-rule="evenodd" clip-rule="evenodd" d="M160.981 220.064C160.316 219.987 159.65 219.912 158.994 219.837C159.662 219.912 160.321 219.988 160.981 220.064Z" fill="black"/>
<path fill-rule="evenodd" clip-rule="evenodd" d="M442.305 274.531C443.62 274.802 444.935 275.072 446.249 275.343C444.934 275.072 443.62 274.802 442.305 274.531Z" fill="black"/>
<path fill-rule="evenodd" clip-rule="evenodd" d="M291.926 249.369C293.243 249.613 294.56 249.857 295.877 250.101C294.56 249.857 293.242 249.612 291.926 249.369Z" fill="black"/>
<path fill-rule="evenodd" clip-rule="evenodd" d="M189.718 240.118C189.714 241.123 189.71 242.128 189.705 243.128C189.71 242.122 189.714 241.12 189.718 240.118Z" fill="black"/>
<path fill-rule="evenodd" clip-rule="evenodd" d="M175.769 234.617C177.111 234.577 178.452 234.537 179.795 234.496C178.453 234.538 177.111 234.577 175.769 234.617Z" fill="black"/>
<path fill-rule="evenodd" clip-rule="evenodd" d="M212.359 240.924C213.741 240.359 215.098 240.118 216.346 241.241C215.017 241.135 213.687 241.03 212.359 240.924Z" fill="black"/>
<path fill-rule="evenodd" clip-rule="evenodd" d="M672.939 321.672C677.754 322.415 680.032 323.501 681.334 328.169C681.938 330.334 680.196 334.406 680.783 335.772C681.564 337.585 682.73 336.625 684.092 338.344C689.068 344.629 691.665 357.143 681.95 361.481C678.31 357.05 679.577 351.905 682.071 347.326C676.825 346.116 674.105 345.933 672.485 340.681C672.291 340.052 671.897 332.338 671.737 332.171C670.652 331.039 666.26 332.182 664.755 331.338C661.43 329.47 659.86 323.22 660.697 319.704C661.85 314.855 666.975 312.378 670.871 309.658C658.371 309.965 646.879 319.404 634.378 320.036C630.903 320.211 630.03 321.758 628.823 317.837C627.753 314.354 628.911 314.806 631.269 313.075C635.943 309.645 643.113 307.385 648.632 305.429C656.648 302.587 670.472 295.931 679.152 299.653C683.483 301.509 686.558 307.204 685.23 311.653C683.934 315.993 676.456 319.061 672.939 321.672Z" fill="black"/>
<path fill-rule="evenodd" clip-rule="evenodd" d="M677.943 257.047C681.52 262.622 683.091 268.511 679.222 274.396C684.723 273.946 690.848 272.941 694.433 277.92C699.615 285.116 694.259 287.474 688.219 287.884C683.369 288.214 673.743 291.345 669.492 288.075C662.505 282.7 669.458 272.526 672.15 267.378C667.711 267.518 656.506 268.829 658.439 260.52C659.833 254.531 673.584 256.047 677.943 257.047Z" fill="black"/>
<path fill-rule="evenodd" clip-rule="evenodd" d="M620.675 293.161L616.344 298.26C618.536 298.75 621.514 296.89 623.447 296.107C622.523 295.125 621.599 294.143 620.675 293.161ZM614.095 286.293C608.949 285.571 603.394 292.295 602.21 284.781C601.517 280.378 605.64 274.738 610.488 274.061C618.944 272.88 630.766 292.054 632.879 298.663C634.828 304.754 632.751 303.913 628.278 306.169C624.406 308.122 619.371 312.656 614.344 311.283C609.748 310.027 608.329 302.665 608.35 298.828C608.382 292.914 611.938 291.01 614.095 286.293Z" fill="black"/>
<path fill-rule="evenodd" clip-rule="evenodd" d="M640.291 286.27C641.068 288.647 646.684 299.762 641.702 299.735C638.931 299.721 633.706 283.681 632.959 281.847C631.935 279.329 629.778 275.857 630.158 273.004C630.815 268.071 630.539 269.628 633.883 270.165C640.399 271.213 645.785 281.13 651.943 283.645C649.392 274.176 645.567 263.797 648.185 254.129C655.521 260.908 655.839 274.872 657.848 284.148C658.46 286.971 659.916 292.754 656.827 294.668C653.33 296.833 642.651 287.772 640.291 286.27Z" fill="black"/>
<path fill-rule="evenodd" clip-rule="evenodd" d="M593.48 306.689C595.911 301.586 598.525 295.615 589.546 297.504C590.857 300.566 592.169 303.627 593.48 306.689ZM590.571 285.342C598.273 284.73 602.656 294.837 603.453 300.712C604.089 305.397 599.214 321.749 592.639 316.813C590.189 314.974 588.812 309.947 587.209 307.405C585.013 303.924 581.94 300.606 580.273 296.863C576.745 288.935 583.071 285.363 590.571 285.342Z" fill="black"/>
<path fill-rule="evenodd" clip-rule="evenodd" d="M590.914 285.505C589.238 285.527 587.563 285.55 585.889 285.572C587.564 285.55 589.24 285.527 590.914 285.505Z" fill="black"/>
<path fill-rule="evenodd" clip-rule="evenodd" d="M678.682 257.578C677.37 257.278 676.058 256.977 674.745 256.677C676.057 256.977 677.369 257.277 678.682 257.578Z" fill="black"/>
<path fill-rule="evenodd" clip-rule="evenodd" d="M689.238 274.604C687.91 274.484 686.582 274.365 685.254 274.244C686.659 273.519 687.985 273.651 689.238 274.604Z" fill="black"/>
<path fill-rule="evenodd" clip-rule="evenodd" d="M504.932 144.226C511.421 148.883 497.059 166.326 491.369 152.184C489.781 148.237 490.276 143.335 494.465 144.359C496.351 144.819 496.61 147.663 499.228 147.77C501.825 147.876 503.1 145.645 504.932 144.226Z" fill="black"/>
<path fill-rule="evenodd" clip-rule="evenodd" d="M542.624 160.573C542.726 157.085 549.425 150.157 553.243 154.736C557.074 159.33 545.522 160.465 542.624 160.573Z" fill="black"/>
</svg>
