<svg width="960" height="538" viewBox="0 0 960 538" fill="none" xmlns="http://www.w3.org/2000/svg">
<path fill-rule="evenodd" clip-rule="evenodd" d="M829.943 288.055C835.558 284.337 847.255 301.293 842.173 307.226C838.026 313.33 825.561 292.207 829.943 288.055ZM810.05 281.314C813.364 283.051 815.513 284.551 812.863 288.536C795.937 292.032 802.613 270.414 810.05 281.314ZM793.533 246.17C800.538 245.156 809.59 252.485 803.601 258.06C800.567 257.641 797.819 256.606 794.157 257.97C782.552 260.417 779.842 246.067 793.533 246.17ZM786.776 276.32C791.347 282.904 790.903 292.927 790.196 301.837C781.62 299.923 783.208 281.754 786.776 276.32ZM756.607 252.175C750.602 251.612 745.431 243.242 751.273 238.123C757.628 234.852 769.499 241.921 769.49 249.257C769.075 256.562 762.854 253.855 756.607 252.175ZM733.822 193.365C738.16 194.8 746.133 211.632 741.551 215.325C735.433 218.442 728.165 197.051 733.822 193.365ZM703.325 211.736C707.672 199.205 722.006 221.361 718.58 228.378C712.923 233.266 702.79 217.96 703.325 211.736ZM707.729 169.516C714.578 178.622 703.124 184.274 695.785 187.183C678.82 191.267 701.369 163.747 707.729 169.516ZM672.97 164.52C668.813 155.678 679.6 139.598 679.387 155.222C677.181 158.727 678.398 178.914 672.97 164.52ZM656.962 143.772C656.617 135.656 664.359 131.864 663.472 144.047C662.013 150.603 657.924 153.265 656.962 143.772ZM658.5 108.992C659.495 112.237 659.592 115.326 655.874 116.486C625.439 130.562 652.347 96.174 658.5 108.992ZM644.623 81.725C650.437 85.035 654.287 98.861 643.763 92.331C636.478 90.371 630.408 89.344 622.239 87.649C606.419 75.897 637.498 73.746 644.623 81.725ZM609.732 225.053C602.828 211.809 618.843 214.663 626.192 217.534C637.615 226.363 615.749 228.812 609.732 225.053ZM610.027 106.451C605.654 105.63 601.428 102.672 595.751 103.302C586.696 83.11 617.399 92.749 610.027 106.451ZM599.366 118.739C607.542 113.024 602.857 139.32 599.582 143.021C587.768 156.205 596.609 123.121 599.366 118.739ZM670.869 277.476C668.36 291.365 659.53 302.621 663.046 280.087C663.529 271.815 673.645 263.41 670.869 277.476ZM566.324 82.843C569.565 71.338 574.83 62.39 579.206 50.757C584.139 55.388 585.611 63.606 581.729 70.259C579.288 74.225 567.451 98.973 566.324 82.843ZM567.878 120.526C566.562 125.978 571.841 131.857 569.625 136.059C554.615 137.732 561.318 93.942 567.878 120.526ZM534.876 32.996C541.488 33.002 560.802 30.749 555.959 41.177C548.639 42.285 521.604 45.925 534.876 32.996ZM538.177 57.486C542.636 59.535 549.306 67.067 545.198 71.869C538.325 73.716 531.681 61.731 538.177 57.486ZM539.046 145.25C538.379 148.679 539.927 164.042 533.225 161.897C527.921 150.069 533.005 123.705 544.295 145.718C542.65 145.572 541.064 145.43 539.046 145.25ZM535.157 111.267C536.329 114.04 531.878 120.542 529.202 116.263C526.909 113.12 532.156 103.028 535.157 111.267ZM510.877 65.337C517.374 74.782 528.534 79.612 537.104 88.671C545.649 104.981 521.392 91.919 516.918 86.076C512.833 82.588 501.591 68.035 510.877 65.337ZM492.026 140.849C498.271 134.729 512.196 122.6 505.604 140.395C502.622 145.652 489.328 153.239 492.026 140.849ZM504.08 114.154C496.646 109.463 492.201 117.151 485.106 117.991C477.563 105.291 508.235 96.884 504.08 114.154ZM466.016 74.388C471.505 77.706 484.544 87.546 479.569 93.805C472.894 91.654 460.266 80.848 466.016 74.388ZM429.804 198.26C430.318 193.768 437.318 192.103 434.985 199.49C437.073 202.234 441.669 205.654 440.482 210.94C436.055 219.066 425.903 204.733 429.804 198.26ZM427.402 162.469C438.712 167.373 429.417 173.434 421.017 173.727C415.724 167.719 419.592 160.785 427.402 162.469ZM428.675 46.407C417.868 34.439 452.825 37.532 449.315 48.333C443.179 46.09 435.855 48.61 428.675 46.407ZM816.669 240.591C799.191 222.516 777.362 211.658 760.563 192.954C702.088 124.929 721.426 149.495 695.295 147.178C689.556 141.977 696.14 136.51 703.321 138.113C674.01 88.83 642.314 70.95 612.379 39.648C608.895 34.433 603.543 48.847 597.866 39.648C593.952 34.684 604.014 32.286 600.34 28.428C584.472 10.71 590.682 17.707 575.987 28.16C571.657 22.642 575.179 17.97 580.251 13.672C570.055 14.595 572.806 7.53497 566.499 5.91797C543.457 9.77797 522.967 20.445 499.988 21.43C491.759 24.319 490.689 42.23 487.291 49.893C480.033 53.481 482.008 28.918 485.106 25.067C483.456 25.054 477.556 19.604 470.341 20.724C390.04 17.728 376.363 8.66396 407 57.486C410.246 67.267 423.192 60.227 428.23 67.76C429.72 71.779 426.068 72.111 422.119 71.745C422.658 72.43 423.192 73.119 423.731 73.805C413.808 82.743 432.805 91.439 437.013 100.235C441.741 106.767 443.246 120.343 453.009 113.741C454.521 119.075 461.838 114.17 466.739 115.128C472.071 119.394 464.768 124.648 459.826 125.352C464.07 129.44 457.846 132.271 458.854 137.753C465.196 147.251 475.289 186.435 454.874 171.6C448.011 163.788 456.564 160.433 464.574 162.335C465.161 158.601 463.563 153.29 461.885 148.978C456.782 153.111 448.547 154.152 453.009 143.021C443.622 145.248 432.575 147.517 421.84 147.573C428.295 162.131 412.721 156.329 408.565 147.76C405.216 146.917 397.744 146.331 393 146.105C396.285 158.349 404.812 173.985 408.565 187.712C412.911 183.537 421.532 190.309 417.54 194.276C417.54 194.276 411.111 197.266 408.565 197.839C413.001 209.921 413.098 282.408 417.54 263.22C418.599 254.704 428.884 245.934 423.936 240.903C412.983 231.918 427.665 226.146 431.339 236.361C439.917 226.276 453.226 219.517 458.854 206.156C464.349 209.315 467.133 204.566 470.124 197.839C472.436 202.692 481.154 202.502 483.699 196.718C485.773 192.049 482.139 189.793 488.452 186.732C494.709 183.721 491.917 176.6 496.104 170.121C499.656 167.492 501.7 176.517 499.785 180.013C502.38 181.063 505.907 175.137 508.566 178.112C523.872 182.799 541.533 177.099 557.259 175.046C563.38 173.727 577.718 199.404 582.921 206.156C597.825 185.501 601.235 200.997 589.053 211.736C599.196 223.617 612.184 240.543 622.239 254.086C620.901 245.99 633.46 233.474 634.576 242.447C625.942 255.046 639.934 273.741 645.785 283.568C649.383 289.072 652.422 295.559 654.74 301.837C664.916 298.46 678.529 292.29 688.626 285.407C682.866 281.588 687.921 276.303 694.852 279.005C691.674 275.938 695.822 272.323 694.365 267.119C690.77 258.944 683.614 255.919 675.913 253.52C662.749 268.833 642.58 244.696 672.805 249.15C666.998 241.282 657.643 227.175 648.367 223.741C639.059 226.125 627.953 217.56 641.018 213.159C631.782 203.48 638.875 200.761 634.262 194.543C630.681 189.597 622.779 185.315 620.528 178.328C620.442 171.575 613.571 163.224 623.746 161.723C620.04 162.455 622.476 133.274 627.953 144.416C631.129 148.454 624.551 164.133 632.396 159.219C634.368 170.142 637.936 168.776 644.623 171.6C647.112 174.55 649.66 178.305 652.824 182.052C659.255 171.072 676.071 172.878 669.269 186.475C667.288 184.445 665.392 185.657 662.129 187.712C683.981 209.826 697.635 232.84 715.838 245.893C734.04 258.946 747.994 274.713 767.427 286.563C774.648 307.307 770.838 313.274 793.321 317.582C797.646 324.63 798.333 331.245 805.554 327.724C806.42 329.237 808.324 330.805 810.05 333.371C810.436 327.682 823.15 307.641 824.999 322.013C820.876 327.04 816.945 336.962 812.863 342.432C815.869 348.871 821.127 356.949 822.051 365.469C831.464 357.516 842.345 345.774 851.972 339.17C851.408 335.427 852.013 331.89 853.906 327.724C858.6 344.372 859.068 329.637 867.795 332.19C870.27 334.122 873.869 332.245 877.106 331.779C877.937 328.674 880.906 324.26 877.125 320.167C863.07 283.459 835.252 265.656 816.669 240.591Z" fill="#F06657"/>
<path fill-rule="evenodd" clip-rule="evenodd" d="M708.822 348.931C711.09 346.923 707.5 340.49 707.497 335.733C708.414 318.806 721.452 355.835 733.012 353.173C728.345 348.13 726.339 335.559 719.5 339.483C726.165 335.001 717.921 322.534 725.748 316.817C721.511 314.939 713.083 302.314 709.445 309.194C706.267 304.615 703.278 300.31 700.08 295.701C696.159 300.326 683.177 299.376 683.046 306.856C683.747 310.647 689.057 314.879 683.858 317.852C686.333 327.006 688.052 339.107 695.08 347.435C694.247 320.025 701.122 335.175 708.822 348.931ZM854.04 350.878C860.108 356.507 880.184 375 874.841 378.45C867.456 380.759 870.239 387.67 869.354 395.201C879.253 382.375 878.347 404.835 881.156 411.348C884.223 420.771 890.668 426.369 897.604 434.212C882.534 385.884 895.82 415.305 915.887 430.152C914.421 422.857 909.093 415.737 903.314 409.778C893.921 387.554 923.501 426.279 930.711 423.85C927.95 419.391 928.239 411.373 923.034 407.915C910.769 401.17 903.451 388.397 897.056 374.962C885.77 367.869 886.093 350.255 877.141 337.726C870.262 338.836 861.416 346.508 854.04 350.878ZM363.538 424.258C365.016 415.042 367.205 404.298 369.065 394.393C365.757 374.479 364.017 356.038 362.504 335.213C356.643 300.002 363.394 286.883 328.457 284.708C324.459 284.476 325.783 295.111 324.583 299.669C321.569 303.393 323.023 306.784 321.08 311.375C318.836 315.126 324.376 320.437 325.798 325.494C342.419 357.118 340.447 392.725 355.533 425.316C355.863 421.453 359.882 421.042 363.538 424.258ZM608.543 38.718C601.713 31.404 593.848 22.532 585.66 14.974C561.1 10.072 536.494 19.886 511.345 26.298C473.991 34.351 423.272 31.359 395.019 21.461C394.596 41.841 411.708 57.862 423.004 74.613C450.543 110.531 484.658 151.86 473.371 196.657C544.181 142.176 589.904 184.933 640.991 153.721C643.612 157.09 641.857 160.117 640.866 165.148C650.598 177.513 663.096 190.198 675.872 201.182C736.387 261.525 809.394 302.914 822.947 360.815C840.837 347.459 859.162 327.506 876.352 331.714C846.598 270.966 784.417 234.223 739.535 184.632C727.037 170.553 716.401 157.895 704.887 142.221C673.777 88.834 639.095 70.972 608.543 38.718ZM759.907 42.749C743.311 40.402 740.233 40.423 728.188 29.263C723.89 43.469 706.278 26.498 715.418 53.168C706.712 61.497 704.383 46.052 707.527 38.996C681.442 39.177 702.707 64.803 706.715 77.922C700.543 85.992 692.412 72.256 690.986 65.617C680.895 68.725 670.183 70.348 659.018 73.02C741.13 146.413 685.721 132.944 731.716 109.839C734.345 107.798 731.941 102.929 736.517 100.059C738.327 98.967 740.152 99.757 741.138 102.685C746.205 129.763 766.807 108.235 749.172 96.296C749.258 91.874 757.32 94.342 756.562 88.975C756.447 68.444 772.349 52.661 786.012 38.326C783.999 37.918 782.388 37.591 780.731 37.254C781.683 38.161 782.458 38.902 783.42 39.819C779.346 42.681 774.87 41.39 771.365 43.272C770.378 51.028 767.558 54.506 762.208 53.983C762.971 50.378 763.724 46.829 764.497 43.175C764.144 43.094 762.207 42.671 759.907 42.749ZM420.694 147.762C412.742 148.703 404.721 147.495 395.632 147.654C418.119 197.28 412.021 224.614 415.862 263.22C423.459 233.81 448.488 225.176 458.424 199.742C465.425 184.026 466.693 168.281 461.428 151.016C460.406 147.565 458.072 142.563 453.314 144.514C442.915 148.323 432.225 147.342 420.694 147.762ZM415.939 135.74C427.857 136.644 440.649 137.289 453.75 135.051C446.624 122.397 439.611 110.578 429.878 98.504C372.146 25.75 407.669 35.726 373.606 36.382C393.285 65.891 399.238 100.58 397.746 135.74H415.939ZM633.848 262.145C667.564 301.608 641.997 306.024 680.065 289.943C684.135 285.194 698.666 284.888 693.149 277.401C678.469 253.401 659.592 234.473 640.062 213.256C612.651 177.198 624.784 177.337 603.986 181.303C592.295 183.602 581.933 180.965 569.418 183.547C589.498 209.819 612.969 235.081 633.848 262.145ZM683.434 60.574C684.396 60.374 685.358 60.172 686.13 60.011C677.647 31.175 703.353 31.509 721.192 28.147C722.79 24.215 723.696 20.644 729.68 20.501C745.338 29.768 741.235 32.56 761.925 34.663C767.124 35.486 770.447 36.992 776.655 36.933C778.713 35.327 780.475 32.992 783.987 32.581C806.373 30.559 826.712 46.747 833.497 68.033C838.746 80.88 833.493 94.505 828.747 107.243C836.006 127.848 896.783 127.38 873.662 160.192C905.083 177.192 935.951 198.376 960.012 226.599C971.822 241.402 987.72 275.257 958.058 276.913C953.966 276.717 947.033 278.892 946.954 285.244C948.05 295.923 956.338 301.633 960.25 312.211C999.91 394.313 912.26 345.633 880.72 323.204C881.869 326.623 883.724 331.167 884.869 335.166C883.817 337.078 883.096 336.958 886.029 339.941C896.481 351.904 898.074 365.858 908.763 378.121C914.232 391.17 951.743 407.319 934.998 418.989C941.36 436.252 933.016 435.417 921.04 426.35C929.532 446.57 915.633 439.671 905.053 430.433C921.005 486.428 872.988 431.736 871.725 410.793C856.942 424.187 855.799 403.678 858.06 392.377C857.632 388.883 862.182 385.414 857.972 383.187C863.012 377.011 859.1 366.394 853.363 359.77C847.416 345.228 830.912 371.287 819.57 368.57C809.556 355.902 800.533 338.161 790.205 322.662C783.411 347.231 763.048 357.121 748.387 330.902C740.17 309.383 742.58 286.643 726.48 268.238C706.777 240.265 681.454 219.001 656.838 194.871C629.452 166.983 645.434 164.016 622.229 176.974C647.352 211.744 687.551 237.023 704.242 278.43C704.919 283.636 704.824 287.725 709.225 291.985C713.671 301.34 721.392 304.753 729.294 310.806C736.182 316.96 739.478 328.552 726.172 327.034C730.556 338.898 741.988 347.859 746.077 360.325C751.375 379.126 720.86 357.312 716.697 352.072C718.111 366.101 712.316 366.189 704.744 354.152C706.524 377.534 688.024 350.161 685.742 342.174C680.923 331.407 682.466 320.608 675.94 310.273C673.002 305.064 659.264 313.748 654.093 313.408C647.726 312.425 632.226 303.873 646.711 301.12C623.722 259.452 585.005 227.866 563.585 184.485C533.743 177.089 497.816 196.947 472.502 215.588C406.716 271.496 428.749 289.948 411.044 275.616C394.375 249.678 406.317 217.498 399.324 188.109C397.363 178.138 393.54 163.748 387.783 156.162C385.411 156.367 383.829 157.053 382.477 153.896C381.316 148.115 378.769 148.918 373.357 151.368C363.541 155.078 356.348 158.128 345.4 158.892C293.637 158.443 243.734 152.988 191.572 147.622C237.065 179.221 256.399 211.1 287.099 237.72C320.42 269.528 328.299 259.702 325.898 276.787C335.035 281.316 355.561 274.39 360.978 289.396C375.889 329.468 372.359 373.316 379.364 415.85C370.27 414.41 378.76 443.409 364.228 434.377C356.072 459.62 336.932 402.959 336.357 396.579C331.21 371.515 328.096 346.617 318.742 322.06C316.037 324.754 314.639 334.035 307.922 330.679C288.706 322.499 270.463 311.874 251.754 300.799C204.089 276.227 161.2 244.889 124.092 206.038C103.23 184.628 74.7098 162.935 78.3101 129.004C82.2791 94.13 178.517 66.344 197.635 57.966C226.669 43.085 367.339 2.15697 370.287 28.387C377.091 29.446 377.29 21.988 382.042 17.93C384.956 15.019 387.717 17.991 389.854 13.06C419.728 16.722 450.659 17.265 481.698 16.066C514.66 16.175 541.976 -4.06302 575.646 2.07898C605.285 15.875 624.389 51.22 654.431 67.84C663.548 64.42 672.531 60.553 683.434 60.574Z" fill="black"/>
<path fill-rule="evenodd" clip-rule="evenodd" d="M102.501 408.387C98.168 436.53 92.213 437.852 73.0901 454.661C54.2527 476.236 30.7612 494.383 15.2328 519.633C50.185 487.265 100.483 491.364 115.728 469.011C122.996 457.534 123.011 444.758 124.083 430.745C129.727 400.765 123.22 413.66 102.501 408.387ZM97.246 407.031C93.941 403.197 93.346 410.338 89.111 407.336C86.207 393.356 90.927 377.91 91.27 362.691C96.533 311.674 105.943 262.611 129.193 216.118C207.179 286.003 199.356 253.58 176.419 307.577C166.252 322.381 161.715 338.235 155.632 355.874C149.039 374.371 139.961 389.904 142.094 410.998C141.166 415.752 133.906 409.06 134.209 414.984C132.783 432.969 133.602 450.415 127.889 468.31C122.427 481.731 111.889 491.057 96.884 494.033C65.7192 504.846 36.3111 513.105 11.196 537.672C-22.8309 542.435 30.6905 476.269 39.9014 471.386C71.9984 434.885 92.764 429.329 97.246 407.031Z" fill="black"/>
<path fill-rule="evenodd" clip-rule="evenodd" d="M415 14.265C412.334 14.033 409.666 13.803 407 13.571C409.668 13.803 412.334 14.033 415 14.265Z" fill="black"/>
<path fill-rule="evenodd" clip-rule="evenodd" d="M336 158.885C337.671 158.907 339.342 158.929 341 158.951C339.324 158.929 337.661 158.907 336 158.885Z" fill="black"/>
<path fill-rule="evenodd" clip-rule="evenodd" d="M344 19.413C342.011 20.555 340.013 20.913 338 19.511C339.999 19.477 341.999 19.445 344 19.413Z" fill="black"/>
<path fill-rule="evenodd" clip-rule="evenodd" d="M361 20.199C358.999 20.011 357.001 19.825 355 19.637C356.999 19.825 358.999 20.011 361 20.199Z" fill="black"/>
<path fill-rule="evenodd" clip-rule="evenodd" d="M758 33.243C756 33.025 754 32.809 752 32.593C754.002 32.809 756 33.027 758 33.243Z" fill="black"/>
<path fill-rule="evenodd" clip-rule="evenodd" d="M796 32.2451C794.334 32.0271 792.668 31.8091 791 31.5911C792.668 31.8091 794.334 32.0271 796 32.2451Z" fill="black"/>
<path fill-rule="evenodd" clip-rule="evenodd" d="M683 59.899C681.333 59.911 679.666 59.925 678 59.937L683 59.899Z" fill="black"/>
<path fill-rule="evenodd" clip-rule="evenodd" d="M330 21.2919C328.333 21.3079 326.665 21.3239 325 21.3399C326.661 20.1299 328.329 20.3159 330 21.2919Z" fill="black"/>
<path fill-rule="evenodd" clip-rule="evenodd" d="M375.176 367.918C375.058 366.25 374.94 364.583 374.824 362.918C374.942 364.587 375.058 366.253 375.176 367.918Z" fill="black"/>
<path fill-rule="evenodd" clip-rule="evenodd" d="M348 157.95C349.004 157.928 350.007 157.906 351 157.886C349.992 157.908 348.996 157.93 348 157.95Z" fill="black"/>
<path fill-rule="evenodd" clip-rule="evenodd" d="M933 432.915C934.004 432.915 935.009 432.917 936 432.921C934.994 432.923 933.997 432.919 933 432.915Z" fill="black"/>
<path fill-rule="evenodd" clip-rule="evenodd" d="M287 28.595C285.666 28.811 284.332 29.025 283 29.241C284.335 29.025 285.668 28.809 287 28.595Z" fill="black"/>
<path fill-rule="evenodd" clip-rule="evenodd" d="M266 154.949C267.004 154.927 268.01 154.907 269 154.887C267.991 154.907 266.995 154.929 266 154.949Z" fill="black"/>
<path fill-rule="evenodd" clip-rule="evenodd" d="M560.343 0.5C558.915 0.512 557.487 0.522997 556.059 0.532997C557.489 0.522997 558.915 0.511 560.343 0.5Z" fill="black"/>
<path fill-rule="evenodd" clip-rule="evenodd" d="M416 134.566C417.667 134.8 419.334 135.036 421 135.27C419.333 135.036 417.666 134.8 416 134.566Z" fill="black"/>
<path fill-rule="evenodd" clip-rule="evenodd" d="M763 41.946C761.997 41.926 760.991 41.906 760 41.89C761.009 41.912 762.005 41.928 763 41.946Z" fill="black"/>
<path fill-rule="evenodd" clip-rule="evenodd" d="M754 43.9219C751.489 48.9279 744.484 47.706 750.228 55.044C756.036 59.903 748.274 62.6939 744.146 59.6499C736.262 51.6819 744.566 43.7209 754 43.9219Z" fill="black"/>
</svg>
